<?xml version="1.0" encoding="iso-8859-1"?>
<!-- Generator: Adobe Illustrator 19.0.0, SVG Export Plug-In . SVG Version: 6.00 Build 0)  -->
<svg version="1.1" id="Capa_1" xmlns="http://www.w3.org/2000/svg" xmlns:xlink="http://www.w3.org/1999/xlink" x="0px" y="0px"
	 viewBox="0 0 512.403 512.403" style="enable-background:new 0 0 512.403 512.403;" xml:space="preserve">
<g>
	<circle style="fill:white;" cx="192.403" cy="192.278" r="96"/>
	<path style="fill:white;" d="M378.803,388.15c-107.733-90.656-265.067-90.656-372.8,0c-3.578,3.008-5.63,7.454-5.6,12.128v44.192
		c-1.544,18.173,11.936,34.157,30.109,35.702c0.629,0.053,1.26,0.089,1.891,0.106h320c17.673,0,32-14.327,32-32v-43.424
		C385.304,398.712,383.224,392.508,378.803,388.15z"/>
</g>
<g>
	<path style="fill:#9966cc;" d="M336.403,192.278c-0.077,10.356-1.311,20.67-3.68,30.752c52.472-6.395,89.825-54.116,83.43-106.588
		s-54.116-89.825-106.588-83.43c-21.854,2.663-42.121,12.779-57.387,28.642C303.359,85.006,336.253,136.023,336.403,192.278z"/>
	<path style="fill:#9966cc;" d="M506.803,324.15c-52.265-43.848-118.37-67.769-186.592-67.52
		c-5.901,11.859-13.37,22.87-22.208,32.736c40.802,13.369,78.675,34.407,111.584,61.984c15.428,13.373,23.823,33.115,22.752,53.504
		v11.424h48.064c17.673,0,32-14.327,32-32v-48C512.394,331.612,510.349,327.183,506.803,324.15z"/>
</g>
<g>
	<path style="stroke:#010101;" d="M335.731,222.678c-8.837-0.025-15.979-7.209-15.954-16.046c0.022-7.654,5.462-14.221,12.978-15.666
		c34.703-6.711,57.396-40.284,50.685-74.987s-40.284-57.396-74.987-50.685c-11.596,2.242-22.345,7.65-31.058,15.624
		c-6.539,5.947-16.661,5.467-22.608-1.072c-5.947-6.539-5.467-16.661,1.072-22.608l0,0c39.15-35.753,99.872-32.999,135.625,6.151
		s32.999,99.872-6.151,135.625c-13.069,11.935-29.183,20.025-46.562,23.376C337.769,222.581,336.751,222.677,335.731,222.678z"/>
	<path style="stroke:#010101;" d="M480.403,416.278h-48c-8.837,0-16-7.163-16-16s7.163-16,16-16h48v-48c0-8.837,7.163-16,16-16
		s16,7.163,16,16v48C512.403,401.951,498.076,416.278,480.403,416.278z"/>
	<path style="stroke:#010101;" d="M496.403,352.278c-3.761,0.016-7.404-1.312-10.272-3.744c-48.664-40.962-110.835-62.34-174.4-59.968
		c-8.827,0.342-16.261-6.533-16.608-15.36c-0.342-8.827,6.533-16.261,15.36-16.608c71.508-2.714,141.459,21.325,196.192,67.424
		c6.769,5.681,7.651,15.773,1.97,22.541C505.609,350.182,501.128,352.274,496.403,352.278z"/>
	<path style="stroke:#010101;" d="M192.403,288.278c-53.019,0-96-42.981-96-96s42.981-96,96-96s96,42.981,96,96
		S245.423,288.278,192.403,288.278z M192.403,128.278c-35.346,0-64,28.654-64,64s28.654,64,64,64s64-28.654,64-64
		S227.749,128.278,192.403,128.278z"/>
	<path style="fill:#010101;" d="M352.403,480.278h-320c-17.673,0-32-14.327-32-32v-48c0-8.837,7.163-16,16-16s16,7.163,16,16v48h320
		v-48c0-8.837,7.163-16,16-16s16,7.163,16,16v48C384.403,465.951,370.076,480.278,352.403,480.278z"/>
	<path style="fill:#010101;" d="M368.403,416.278c-3.761,0.016-7.404-1.312-10.272-3.744c-95.829-80.48-235.627-80.48-331.456,0
		c-6.582,5.896-16.698,5.339-22.593-1.243c-5.896-6.582-5.339-16.698,1.243-22.593c0.261-0.234,0.53-0.459,0.806-0.676
		c107.707-90.46,264.837-90.46,372.544,0c6.769,5.681,7.651,15.773,1.971,22.541C377.609,414.182,373.128,416.274,368.403,416.278z"
		/>
</g>
<g>
</g>
<g>
</g>
<g>
</g>
<g>
</g>
<g>
</g>
<g>
</g>
<g>
</g>
<g>
</g>
<g>
</g>
<g>
</g>
<g>
</g>
<g>
</g>
<g>
</g>
<g>
</g>
<g>
</g>
</svg>
