<svg
   xmlns="http://www.w3.org/2000/svg"
   version="1.1"
   width="512"
   viewBox="0 0 24 24"
   height="512"
   enable-background="new 0 0 24 24"
   >
  <path
     id="path856"
     fill="#9966cc"
     d="m 9.161,20.25 h 10.678 c 1.408,0 2.554,-1.145 2.554,-2.554 V 3.304 C 22.393,1.896 21.248,0.75 19.839,0.75 H 9.16 c -1.408,0 -2.554,1.145 -2.554,2.554 v 14.393 c 0.001,1.408 1.146,2.553 2.555,2.553 z" />
  <path
     id="path858"
     fill="#ffffff"
     d="m 4.325,23 h 10.35 c 1.365,0 2.475,-1.11 2.475,-2.475 V 7.475 C 17.15,6.11 16.04,5 14.675,5 H 4.325 C 2.96,5 1.85,6.11 1.85,7.475 v 13.05 C 1.85,21.89 2.96,23 4.325,23 Z" />
  <path
     id="path860"
     d="m 5.75,17 h 7.5 C 13.664,17 14,16.664 14,16.25 14,15.836 13.664,15.5 13.25,15.5 H 5.75 C 5.336,15.5 5,15.836 5,16.25 5,16.664 5.336,17 5.75,17 Z" />
  <path
     id="path862"
     d="m 5.75,21 h 7.5 C 13.664,21 14,20.664 14,20.25 14,19.836 13.664,19.5 13.25,19.5 H 5.75 C 5.336,19.5 5,19.836 5,20.25 5,20.664 5.336,21 5.75,21 Z" />
  <path
     id="path864"
     d="m 5.75,13.5 h 7.5 C 13.664,13.5 14,13.164 14,12.75 14,12.336 13.664,12 13.25,12 H 5.75 C 5.336,12 5,12.336 5,12.75 5,13.164 5.336,13.5 5.75,13.5 Z" />
  <path
     id="path866"
     d="m 5.75,9.5 h 7.5 C 13.664,9.5 14,9.164 14,8.75 14,8.336 13.664,8 13.25,8 H 5.75 C 5.336,8 5,8.336 5,8.75 5,9.164 5.336,9.5 5.75,9.5 Z" />
  <path
     id="path868"
     d="M 20.25,21 C 21.767,21 23,19.767 23,18.25 V 2.75 C 23,1.233 21.767,0 20.25,0 H 8.75 C 7.77,0 6.86,0.528 6.377,1.38 6.172,1.74 6.299,2.198 6.659,2.402 7.019,2.605 7.478,2.479 7.681,2.12 7.901,1.731 8.301,1.5 8.749,1.5 H 20.25 c 0.689,0 1.25,0.561 1.25,1.25 v 15.5 c 0,0.689 -0.561,1.25 -1.25,1.25 -0.414,0 -0.75,0.336 -0.75,0.75 0,0.414 0.336,0.75 0.75,0.75 z" />
  <path
     id="path870"
     d="m 3.75,24 h 11.5 C 16.767,24 18,22.767 18,21.25 V 6.75 C 18,5.233 16.767,4 15.25,4 H 3.75 C 2.233,4 1,5.233 1,6.75 v 14.5 C 1,22.767 2.233,24 3.75,24 Z M 15.25,5.5 c 0.689,0 1.25,0.561 1.25,1.25 v 14.5 c 0,0.689 -0.561,1.25 -1.25,1.25 H 3.75 C 3.061,22.5 2.5,21.939 2.5,21.25 V 6.75 C 2.5,6.061 3.061,5.5 3.75,5.5 Z" />
</svg>
